General

Format                           : Matroska
File size                        : 4.29 GiB
Duration                         : 1h 42mn
Overall bit rate                 : 5 976 Kbps
Encoded date                     : UTC 2011-07-30 12:51:56
Writing application              : mkvmerge v4.9.1 ('Ich will') gemaakt op Jul 11 2011 23:53:15
Writing library                  : libebml v1.2.1 + libmatroska v1.1.1

Video
ID                               : 1
Format                           : AVC
Format/Info                      : Advanced Video Codec
Format profile                   : High@L4.1
Format settings, CABAC           : Yes
Format settings, ReFrames        : 8 frames
Codec ID                         : V_MPEG4/ISO/AVC
Duration                         : 1h 42mn
Bit rate                         : 4 466 Kbps
Width                            : 1 280 pixels
Height                           : 528 pixels
Display aspect ratio             : 2.40:1
Frame rate                       : 23.976 fps
Color space                      : YUV
Chroma subsampling               : 4:2:0
Bit depth                        : 8 bits
Scan type                        : Progressive
Bits/(Pixel*Frame)               : 0.276
Stream size                      : 3.12 GiB (73%)
Title                            : American.Violet.2009
Writing library                  : x264 core 68 r1183M f21daff
Encoding settings                : cabac=1 / ref=8 / deblock=1:-3:-3 / analyse=0x3:0x113 / me=umh / subme=9 / psy_rd=1.2:0.2 / mixed_ref=1 / me_range=32 / chroma_me=1 / trellis=1 / 8x8dct=1 / cqm=0 / deadzone=21,11 / chroma_qp_offset=-3 / threads=12 / nr=0 / decimate=0 / mbaff=0 / bframes=3 / b_pyramid=1 / b_adapt=2 / b_bias=0 / direct=1 / wpredb=1 / keyint=250 / keyint_min=25 / scenecut=40 / rc=2pass / bitrate=4466 / ratetol=1.0 / qcomp=0.60 / qpmin=10 / qpmax=51 / qpstep=4 / cplxblur=20.0 / qblur=0.5 / vbv_maxrate=50000 / vbv_bufsize=50000 / ip_ratio=1.40 / pb_ratio=1.30 / aq=1:1.00
Language                         : English

Audio
ID                               : 2
Format                           : DTS
Format/Info                      : Digital Theater Systems
Codec ID                         : A_DTS
Duration                         : 1h 42mn
Bit rate mode                    : Constant
Bit rate                         : 1 510 Kbps
Channel(s)                       : 6 channels
Channel positions                : Front: L C R, Side: L R, LFE
Sampling rate                    : 48.0 KHz
Bit depth                        : 24 bits
Compression mode                 : Lossy
Stream size                      : 1.08 GiB (25%)
Title                            : English DTS 1536kb/s
Language                         : English

Text
ID                               : 3
Format                           : UTF-8
Codec ID                         : S_TEXT/UTF8
Codec ID/Info                    : UTF-8 Plain Text
Language                         : Dutch

-------------------------------------

Verenigde Staten
Drama
103 minuten

geregisseerd door Tim Disney
met Nicole Behaire, Will Patton en Alfre Woodard

Dee Roberts is een Afrikaans-Amerikaanse vrouw van in de twintig, die probeert te overleven als alleenstaande moeder in Texas. Wanneer de politie haar en haar buren arresteert vanwege drugsbezit, claimt zij onschuldig te zijn. Ze weigert schuld te bekennen, om strafvermindering te krijgen en neemt het op tegen de corrupte wetshandhavers.

-Ondertiteling (nederlands) met de mogelijkheid deze in/uit te schakelen. 